<svg width="283" height="241" viewBox="0 0 283 241" fill="none" xmlns="http://www.w3.org/2000/svg">
<path d="M95 91.0001L93.9119 89.3219C93.3433 89.6907 93 90.3223 93 91.0001H95ZM124.5 91.0001L123.937 92.9193C124.022 92.9442 124.109 92.9634 124.196 92.9768L124.5 91.0001ZM144.167 108.667H146.167H144.167ZM142.167 165C142.167 166.105 143.062 167 144.167 167C145.271 167 146.167 166.105 146.167 165H142.167ZM129.417 157.25L130.193 155.407C130.093 155.365 129.989 155.331 129.884 155.305L129.417 157.25ZM95 157.25H93C93 157.912 93.3277 158.531 93.8752 158.904C94.4227 159.276 95.119 159.353 95.7348 159.11L95 157.25ZM193.333 91.0001H195.333C195.333 90.0844 194.712 89.2857 193.824 89.0612L193.333 91.0001ZM163.833 91.0001L164.192 92.9677C164.213 92.9637 164.235 92.9594 164.257 92.9548L163.833 91.0001ZM148.5 162L149.837 163.488L149.837 163.488L148.5 162ZM158.917 157.25L158.679 155.264C158.567 155.278 158.457 155.3 158.349 155.332L158.917 157.25ZM193.333 157.25L192.957 159.214C193.543 159.327 194.148 159.171 194.608 158.792C195.067 158.412 195.333 157.846 195.333 157.25H193.333ZM144.885 165L145.365 166.941H145.366L144.885 165ZM96.0881 92.6782C97.9976 91.4401 100.622 90.7454 103.658 90.4802C106.67 90.2172 109.923 90.3902 112.957 90.7528C115.983 91.1145 118.738 91.6584 120.739 92.113C121.738 92.3399 122.545 92.5437 123.099 92.6897C123.376 92.7627 123.59 92.8213 123.732 92.861C123.803 92.8809 123.856 92.896 123.891 92.9059C123.908 92.9109 123.921 92.9145 123.929 92.9168C123.933 92.9179 123.935 92.9187 123.937 92.9191C123.937 92.9193 123.938 92.9194 123.938 92.9195C123.938 92.9195 123.938 92.9195 123.938 92.9195C123.938 92.9194 123.937 92.9193 124.5 91.0001C125.063 89.0808 125.062 89.0807 125.062 89.0805C125.061 89.0805 125.061 89.0803 125.06 89.0801C125.059 89.0798 125.058 89.0794 125.056 89.0789C125.052 89.0779 125.048 89.0765 125.042 89.0748C125.03 89.0714 125.013 89.0666 124.992 89.0604C124.949 89.0482 124.887 89.0306 124.807 89.0083C124.648 88.9637 124.416 88.9001 124.119 88.8219C123.526 88.6656 122.674 88.4506 121.625 88.2123C119.53 87.7365 116.633 87.1638 113.432 86.7811C110.239 86.3994 106.69 86.2002 103.31 86.4954C99.9541 86.7885 96.5946 87.5826 93.9119 89.3219L96.0881 92.6782ZM124.5 91.0001C124.196 92.9768 124.195 92.9768 124.195 92.9767C124.195 92.9767 124.195 92.9766 124.194 92.9766C124.194 92.9765 124.194 92.9765 124.194 92.9765C124.193 92.9764 124.193 92.9764 124.194 92.9765C124.194 92.9766 124.197 92.977 124.201 92.9776C124.208 92.9788 124.222 92.9811 124.242 92.9844C124.281 92.9911 124.345 93.0021 124.431 93.0179C124.602 93.0496 124.863 93.1006 125.203 93.1751C125.883 93.3242 126.876 93.5669 128.097 93.9362C130.541 94.6757 133.876 95.9169 137.424 97.9168L139.388 94.4322C135.53 92.2576 131.912 90.9116 129.255 90.1076C127.925 89.705 126.83 89.4368 126.06 89.2679C125.674 89.1835 125.37 89.1238 125.157 89.0845C125.051 89.0648 124.967 89.0502 124.908 89.0402C124.878 89.0352 124.855 89.0314 124.837 89.0286C124.829 89.0272 124.821 89.026 124.816 89.0252C124.813 89.0247 124.811 89.0244 124.809 89.0241C124.808 89.0239 124.807 89.0238 124.806 89.0237C124.806 89.0236 124.805 89.0235 124.805 89.0235C124.805 89.0234 124.804 89.0233 124.5 91.0001ZM137.424 97.9168C140.848 99.8465 141.794 101.421 142.126 102.723C142.312 103.454 142.346 104.252 142.309 105.253C142.277 106.144 142.167 107.473 142.167 108.667H146.167C146.167 107.518 146.262 106.636 146.307 105.398C146.348 104.269 146.33 103.02 146.002 101.735C145.306 99.0058 143.371 96.6771 139.388 94.4322L137.424 97.9168ZM142.167 108.667V165H146.167V108.667H142.167ZM146.167 165C146.167 164.623 146.199 164.533 146.181 164.597C146.173 164.626 146.121 164.821 145.949 165.053C145.76 165.308 145.346 165.7 144.677 165.776C144.047 165.848 143.593 165.59 143.394 165.445C143.19 165.298 143.081 165.15 143.043 165.095C142.996 165.028 142.974 164.979 142.965 164.961C142.956 164.94 142.951 164.925 142.948 164.915C142.945 164.905 142.94 164.885 142.936 164.852C142.932 164.822 142.925 164.752 142.934 164.651C142.944 164.537 143.027 163.831 143.769 163.401C144.514 162.97 145.146 163.268 145.151 163.27C145.212 163.298 145.118 163.265 144.837 163.012L142.163 165.988C142.574 166.356 143.019 166.695 143.495 166.911C143.739 167.022 144.061 167.134 144.44 167.162C144.837 167.192 145.314 167.129 145.773 166.863C146.231 166.598 146.518 166.219 146.684 165.874C146.842 165.544 146.899 165.23 146.919 164.996C146.959 164.54 146.881 164.121 146.793 163.813C146.704 163.502 146.556 163.14 146.327 162.811C146.214 162.649 146.027 162.414 145.745 162.209C145.466 162.007 144.932 161.721 144.226 161.802C143.48 161.886 142.993 162.324 142.735 162.671C142.496 162.994 142.382 163.326 142.322 163.546C142.257 163.784 142.22 164.025 142.199 164.252C142.177 164.483 142.167 164.733 142.167 165H146.167ZM144.837 163.012C143.956 162.221 142.547 161.363 141.095 160.566C139.596 159.742 137.882 158.895 136.276 158.135C134.667 157.374 133.149 156.693 132.033 156.203C131.475 155.957 131.017 155.759 130.697 155.622C130.537 155.553 130.412 155.5 130.327 155.463C130.284 155.445 130.251 155.431 130.228 155.422C130.217 155.417 130.208 155.413 130.202 155.411C130.199 155.41 130.197 155.409 130.196 155.408C130.195 155.408 130.194 155.407 130.194 155.407C130.193 155.407 130.193 155.407 130.193 155.407C130.193 155.407 130.193 155.407 129.417 157.25C128.641 159.093 128.641 159.093 128.641 159.093C128.641 159.093 128.641 159.093 128.641 159.093C128.641 159.094 128.641 159.094 128.642 159.094C128.643 159.094 128.645 159.095 128.647 159.096C128.652 159.098 128.66 159.102 128.67 159.106C128.691 159.115 128.722 159.128 128.762 159.145C128.844 159.18 128.964 159.231 129.119 159.298C129.43 159.431 129.877 159.624 130.423 159.864C131.516 160.345 133 161.01 134.566 161.751C136.136 162.494 137.769 163.303 139.17 164.072C140.618 164.867 141.661 165.536 142.163 165.988L144.837 163.012ZM129.417 157.25C129.884 155.305 129.884 155.305 129.883 155.305C129.883 155.305 129.882 155.305 129.882 155.305C129.881 155.305 129.879 155.304 129.877 155.304C129.874 155.303 129.869 155.302 129.863 155.3C129.851 155.298 129.833 155.293 129.811 155.288C129.766 155.278 129.701 155.263 129.617 155.243C129.449 155.205 129.204 155.151 128.89 155.083C128.262 154.949 127.355 154.764 126.228 154.559C123.975 154.15 120.834 153.658 117.274 153.33C110.237 152.682 101.234 152.637 94.2652 155.39L95.7348 159.11C101.784 156.721 109.989 156.676 116.907 157.313C120.323 157.628 123.345 158.101 125.512 158.495C126.594 158.691 127.461 158.868 128.054 158.995C128.35 159.058 128.577 159.109 128.729 159.144C128.805 159.161 128.862 159.174 128.899 159.183C128.917 159.187 128.931 159.19 128.939 159.192C128.944 159.193 128.947 159.194 128.948 159.194C128.949 159.195 128.95 159.195 128.95 159.195C128.95 159.195 128.95 159.195 128.95 159.195C128.95 159.195 128.949 159.195 129.417 157.25ZM97 157.25V91.0001H93V157.25H97ZM193.824 89.0612C186.722 87.2645 179.103 87.2773 173.33 87.715C170.429 87.935 167.963 88.2649 166.217 88.5405C165.344 88.6784 164.65 88.803 164.17 88.8939C163.931 88.9393 163.744 88.9764 163.616 89.0024C163.552 89.0155 163.503 89.0258 163.468 89.0331C163.451 89.0367 163.437 89.0396 163.428 89.0416C163.423 89.0427 163.419 89.0435 163.416 89.0441C163.414 89.0444 163.413 89.0447 163.412 89.0449C163.412 89.045 163.411 89.0451 163.411 89.0452C163.41 89.0453 163.41 89.0454 163.833 91.0001C164.257 92.9548 164.256 92.9548 164.256 92.9549C164.256 92.9549 164.256 92.9549 164.256 92.9549C164.256 92.9549 164.256 92.9549 164.257 92.9548C164.258 92.9546 164.259 92.9542 164.262 92.9536C164.268 92.9523 164.277 92.9503 164.291 92.9476C164.317 92.942 164.358 92.9334 164.414 92.9221C164.525 92.8994 164.694 92.8659 164.915 92.8239C165.358 92.74 166.012 92.6226 166.841 92.4916C168.501 92.2294 170.859 91.9139 173.632 91.7036C179.208 91.2808 186.339 91.2936 192.843 92.939L193.824 89.0612ZM163.833 91.0001C163.475 89.0325 163.475 89.0325 163.474 89.0326C163.474 89.0326 163.474 89.0327 163.473 89.0327C163.473 89.0328 163.472 89.033 163.471 89.0331C163.469 89.0335 163.467 89.034 163.464 89.0345C163.457 89.0357 163.449 89.0373 163.438 89.0393C163.415 89.0435 163.384 89.0494 163.343 89.0572C163.262 89.0727 163.144 89.0955 162.995 89.1254C162.695 89.1853 162.268 89.2739 161.744 89.3905C160.699 89.6234 159.263 89.9699 157.703 90.4249C156.148 90.8783 154.44 91.4483 152.86 92.1334C151.308 92.8065 149.749 93.6462 148.59 94.6867L151.263 97.6624C151.949 97.0462 153.05 96.4108 154.452 95.8031C155.825 95.2074 157.362 94.6909 158.823 94.2649C160.279 93.8403 161.628 93.5145 162.614 93.2948C163.106 93.1852 163.505 93.1025 163.78 93.0476C163.917 93.0202 164.022 92.9998 164.092 92.9864C164.127 92.9797 164.153 92.9748 164.17 92.9717C164.179 92.9701 164.185 92.969 164.188 92.9683C164.19 92.968 164.191 92.9678 164.192 92.9677C164.192 92.9676 164.192 92.9676 164.192 92.9676C164.192 92.9676 164.192 92.9676 164.192 92.9676C164.192 92.9677 164.192 92.9677 163.833 91.0001ZM148.59 94.6867C144.508 98.3542 142.167 103.377 142.167 108.667H146.167C146.167 104.585 147.97 100.621 151.263 97.6624L148.59 94.6867ZM149.837 163.488C150.913 162.521 153.186 161.444 155.47 160.558C156.559 160.135 157.568 159.786 158.305 159.542C158.673 159.42 158.972 159.326 159.177 159.262C159.279 159.23 159.358 159.206 159.41 159.19C159.437 159.182 159.456 159.176 159.469 159.173C159.475 159.171 159.479 159.169 159.482 159.169C159.483 159.168 159.484 159.168 159.485 159.168C159.485 159.168 159.485 159.168 159.485 159.168C159.485 159.168 159.485 159.168 159.485 159.168C159.485 159.168 159.484 159.168 158.917 157.25C158.349 155.332 158.349 155.332 158.348 155.333C158.348 155.333 158.348 155.333 158.348 155.333C158.347 155.333 158.347 155.333 158.346 155.333C158.345 155.334 158.343 155.334 158.34 155.335C158.336 155.336 158.329 155.338 158.321 155.341C158.304 155.346 158.28 155.353 158.25 155.362C158.189 155.381 158.1 155.408 157.988 155.443C157.764 155.512 157.443 155.614 157.051 155.744C156.267 156.002 155.191 156.375 154.022 156.829C151.789 157.696 148.854 158.994 147.163 160.512L149.837 163.488ZM158.917 157.25C159.154 159.236 159.154 159.236 159.154 159.236C159.154 159.236 159.154 159.236 159.154 159.236C159.155 159.236 159.156 159.236 159.157 159.236C159.159 159.235 159.162 159.235 159.167 159.234C159.176 159.233 159.19 159.232 159.209 159.229C159.248 159.225 159.306 159.218 159.383 159.21C159.537 159.192 159.766 159.167 160.064 159.135C160.66 159.072 161.528 158.984 162.613 158.886C164.783 158.69 167.814 158.455 171.253 158.298C178.175 157.982 186.583 157.994 192.957 159.214L193.709 155.286C186.849 153.972 178.048 153.984 171.071 154.302C167.56 154.462 164.468 154.702 162.253 154.902C161.145 155.002 160.256 155.092 159.641 155.157C159.334 155.19 159.095 155.217 158.933 155.235C158.851 155.244 158.789 155.251 158.746 155.256C158.725 155.259 158.709 155.261 158.698 155.262C158.692 155.263 158.688 155.263 158.684 155.264C158.683 155.264 158.682 155.264 158.681 155.264C158.68 155.264 158.68 155.264 158.68 155.264C158.679 155.264 158.679 155.264 158.917 157.25ZM195.333 157.25V124.125H191.333V157.25H195.333ZM195.333 124.125V91.0001H191.333V124.125H195.333ZM146.167 165C146.167 164.476 146.151 164.127 146.124 163.915C146.12 163.885 146.111 163.821 146.095 163.744C146.089 163.714 146.07 163.622 146.032 163.509C146.015 163.46 145.971 163.331 145.887 163.178C145.845 163.102 145.764 162.965 145.632 162.816C145.514 162.683 145.239 162.407 144.784 162.25C144.237 162.062 143.638 162.121 143.141 162.406C142.727 162.642 142.51 162.961 142.42 163.111C142.242 163.406 142.188 163.675 142.177 163.727C142.141 163.898 142.136 164.036 142.135 164.064C142.131 164.159 142.134 164.236 142.136 164.267C142.143 164.408 142.164 164.561 142.192 164.707C142.241 164.957 142.374 165.517 142.767 166.03C142.982 166.311 143.321 166.639 143.82 166.84C144.34 167.051 144.878 167.062 145.365 166.941L144.404 163.059C144.644 162.999 144.975 162.993 145.32 163.132C145.644 163.263 145.843 163.468 145.944 163.6C146.042 163.728 146.083 163.831 146.096 163.865C146.111 163.905 146.116 163.93 146.118 163.94C146.118 163.943 146.126 163.981 146.131 164.062C146.131 164.078 146.135 164.143 146.131 164.231C146.13 164.254 146.126 164.39 146.09 164.559C146.079 164.61 146.025 164.878 145.848 165.172C145.758 165.322 145.541 165.641 145.127 165.878C144.63 166.162 144.031 166.221 143.485 166.033C143.029 165.877 142.754 165.6 142.637 165.468C142.505 165.319 142.424 165.182 142.382 165.106C142.299 164.954 142.255 164.826 142.239 164.778C142.202 164.668 142.183 164.579 142.178 164.554C142.164 164.486 142.158 164.436 142.156 164.426C142.149 164.367 142.167 164.5 142.167 165H146.167ZM145.366 166.941C145.969 166.792 146.495 166.418 146.775 166.211C147.13 165.949 147.505 165.629 147.856 165.316C148.212 164.998 148.578 164.656 148.914 164.342C149.259 164.019 149.567 163.73 149.837 163.488L147.163 160.512C146.856 160.788 146.512 161.111 146.181 161.421C145.842 161.739 145.509 162.049 145.194 162.33C144.874 162.616 144.605 162.841 144.397 162.995C144.112 163.205 144.154 163.121 144.404 163.059L145.366 166.941Z" fill="black"/>
<path d="M155 107.311C166.174 105.541 172.527 105.585 184 107.311V114.311C172.675 112.401 166.325 112.324 155 114.311V107.311Z" fill="black"/>
<path d="M155 120.311C166.174 118.541 172.527 118.585 184 120.311V127.311C172.675 125.401 166.325 125.324 155 127.311V120.311Z" fill="black"/>
<path d="M155 134.311C166.174 132.541 172.527 132.585 184 134.311V141.311C172.675 139.401 166.325 139.324 155 141.311V134.311Z" fill="black"/>
<rect x="130" y="99" width="14" height="59" fill="black"/>
<rect x="130" y="99" width="14" height="59" fill="black"/>
<rect x="130" y="99" width="14" height="59" fill="black"/>
<rect x="130" y="99" width="14" height="59" fill="black"/>
<rect x="95" y="94" width="35" height="62" fill="black"/>
<rect x="95" y="94" width="35" height="62" fill="black"/>
<rect x="95" y="94" width="35" height="62" fill="black"/>
<rect x="95" y="94" width="35" height="62" fill="black"/>
<rect x="97" y="91" width="33" height="12" fill="black"/>
<rect x="97" y="91" width="33" height="12" fill="black"/>
<rect x="97" y="91" width="33" height="12" fill="black"/>
<rect x="97" y="91" width="33" height="12" fill="black"/>
<rect x="98" y="89" width="25" height="12" fill="black"/>
<rect x="98" y="89" width="25" height="12" fill="black"/>
<rect x="98" y="89" width="25" height="12" fill="black"/>
<rect x="98" y="89" width="25" height="12" fill="black"/>
<rect x="123" y="94" width="16" height="9" rx="2" fill="black"/>
<rect x="123" y="94" width="16" height="9" rx="2" fill="black"/>
<rect x="123" y="94" width="16" height="9" rx="2" fill="black"/>
<rect x="123" y="94" width="16" height="9" rx="2" fill="black"/>
<path d="M136 155.5C136 154.395 136.895 153.5 138 153.5H144C145.105 153.5 146 154.395 146 155.5V160.29C146 161.473 144.978 162.398 143.801 162.28L137.801 161.68C136.779 161.578 136 160.718 136 159.69V155.5Z" fill="black"/>
<path d="M136 155.5C136 154.395 136.895 153.5 138 153.5H144C145.105 153.5 146 154.395 146 155.5V160.29C146 161.473 144.978 162.398 143.801 162.28L137.801 161.68C136.779 161.578 136 160.718 136 159.69V155.5Z" fill="black"/>
<path d="M136 155.5C136 154.395 136.895 153.5 138 153.5H144C145.105 153.5 146 154.395 146 155.5V160.29C146 161.473 144.978 162.398 143.801 162.28L137.801 161.68C136.779 161.578 136 160.718 136 159.69V155.5Z" fill="black"/>
<path d="M136 155.5C136 154.395 136.895 153.5 138 153.5H144C145.105 153.5 146 154.395 146 155.5V160.29C146 161.473 144.978 162.398 143.801 162.28L137.801 161.68C136.779 161.578 136 160.718 136 159.69V155.5Z" fill="black"/>
<circle cx="144.5" cy="39.5" r="6.5" fill="black"/>
<circle cx="144.5" cy="209.5" r="6.5" fill="black"/>
<circle cx="228.5" cy="126.5" r="6.5" fill="black"/>
<circle cx="59.5" cy="126.5" r="6.5" fill="black"/>
<circle cx="75.5" cy="97.5" r="3.5" fill="black"/>
<circle cx="75.5" cy="157.5" r="3.5" fill="black"/>
<circle cx="115.5" cy="201.5" r="3.5" fill="black"/>
<circle cx="172.5" cy="199.5" r="3.5" fill="black"/>
<circle cx="215.5" cy="160.5" r="3.5" fill="black"/>
<circle cx="115.5" cy="54.5" r="3.5" fill="black"/>
<circle cx="172.5" cy="54.5" r="3.5" fill="black"/>
<circle cx="215.5" cy="95.5" r="3.5" transform="rotate(90 215.5 95.5)" fill="black"/>
<circle cx="81.5" cy="61.5" r="6.5" fill="black"/>
<circle cx="208.5" cy="61.5" r="6.5" fill="black"/>
<circle cx="208.5" cy="193.5" r="6.5" fill="black"/>
<circle cx="48" cy="79" r="10" fill="black"/>
<circle cx="245" cy="79" r="10" fill="black"/>
<circle cx="245" cy="177" r="10" fill="black"/>
<circle cx="48" cy="177" r="10" fill="black"/>
<circle cx="102" cy="231" r="10" fill="black"/>
<circle cx="187" cy="231" r="10" fill="black"/>
<circle cx="273" cy="127" r="10" fill="black"/>
<circle cx="187" cy="10" r="10" fill="black"/>
<circle cx="102" cy="10" r="10" fill="black"/>
<circle cx="10" cy="126" r="10" fill="black"/>
<circle cx="81.5" cy="193.5" r="6.5" fill="black"/>
</svg>
