<svg width="55" height="55" viewBox="0 0 55 55" fill="none" xmlns="http://www.w3.org/2000/svg">
<circle cx="27.5" cy="27.5" r="27.5" fill="black"/>
<path d="M42.9843 39.0262C42.9883 36.9045 42.1803 35.5862 40.6829 34.083C39.1855 32.5799 37.1523 31.7331 35.0305 31.729L19.0306 31.6983C16.9088 31.6942 14.8724 32.5332 13.3692 34.0306C11.8661 35.528 11.0191 37.5612 11.0151 39.6829" fill="white"/>
<path d="M35.0006 16.046C34.9921 20.4642 31.4036 24.0391 26.9853 24.0306C22.567 24.0221 18.9922 20.4335 19.0007 16.0152C19.0092 11.597 22.5977 8.02213 27.016 8.03062C31.4343 8.03911 35.0091 11.6277 35.0006 16.046Z" fill="white"/>
<path d="M42.9843 39.0262C42.9883 36.9045 42.1803 35.5862 40.6829 34.083C39.1855 32.5799 37.1523 31.7331 35.0305 31.729L19.0306 31.6983C16.9088 31.6942 14.8724 32.5332 13.3692 34.0306C11.8661 35.528 11.0191 37.5612 11.0151 39.6829C11.942 43.7363 19.2621 47.9927 28.5024 47.5306C37.0497 47.7371 43.5024 41.5306 42.9843 39.0262Z" fill="white"/>
<path d="M42.9843 39.0262C42.9883 36.9045 42.1803 35.5862 40.6829 34.083C39.1855 32.5799 37.1523 31.7331 35.0305 31.729L19.0306 31.6983C16.9088 31.6942 14.8724 32.5332 13.3692 34.0306C11.8661 35.528 11.0191 37.5612 11.0151 39.6829" stroke="white" stroke-width="4" stroke-linecap="round" stroke-linejoin="round"/>
<path d="M35.0006 16.046C34.9921 20.4642 31.4036 24.0391 26.9853 24.0306C22.567 24.0221 18.9922 20.4335 19.0007 16.0152C19.0092 11.597 22.5977 8.02213 27.016 8.03062C31.4343 8.03911 35.0091 11.6277 35.0006 16.046Z" stroke="white" stroke-width="4" stroke-linecap="round" stroke-linejoin="round"/>
<path d="M42.9843 39.0262C42.9883 36.9045 42.1803 35.5862 40.6829 34.083C39.1855 32.5799 37.1523 31.7331 35.0305 31.729L19.0306 31.6983C16.9088 31.6942 14.8724 32.5332 13.3692 34.0306C11.8661 35.528 11.0191 37.5612 11.0151 39.6829C11.942 43.7363 19.2621 47.9927 28.5024 47.5306C37.0497 47.7371 43.5024 41.5306 42.9843 39.0262Z" stroke="white" stroke-width="4" stroke-linecap="round" stroke-linejoin="round"/>
</svg>
